<svg id="Layer_1" data-name="Layer 1" xmlns="http://www.w3.org/2000/svg" viewBox="0 0 438.71 478.27"><defs><style>.cls-1{fill:#231f20;}.cls-2{fill:#e01b22;}.cls-2,.cls-3{fill-rule:evenodd;}.cls-3{fill:#2e3191;}</style></defs><g id="logo"><polygon class="cls-1" points="38.45 413.23 38.45 423.97 26.49 423.97 26.49 478.27 11.86 478.27 11.86 423.97 0 423.97 0 413.23 38.45 413.23 38.45 413.23"/><polygon class="cls-1" points="62.7 467.54 83.56 467.54 83.56 478.27 48.08 478.27 48.08 413.23 82.75 413.23 82.75 423.97 62.7 423.97 62.7 439.82 79.78 439.82 79.78 450.56 62.7 450.56 62.7 467.54 62.7 467.54"/><path class="cls-1" d="M125.7,490.7v-65h14.52v65Zm43.16-65-13.09,32.11,13.09,32.93H153.11l-12.58-32.93,12.58-32.11Z" transform="translate(-31.29 -12.42)"/><polygon class="cls-1" points="174.71 413.23 188.1 413.23 188.1 478.27 175.01 478.27 160.8 439.31 160.8 478.27 147.5 478.27 147.5 413.23 160.69 413.23 174.71 452.1 174.71 413.23 174.71 413.23"/><path class="cls-1" d="M257.55,477.4V439c0-1.7-.89-2.56-2.66-2.56H250c-1.84,0-2.76.86-2.76,2.56V477.4c0,1.71.92,2.56,2.76,2.56h4.91c1.77,0,2.66-.85,2.66-2.56Zm-12-51.74h13.7q12.9,0,12.89,11.25v42.44q0,11.34-12.89,11.35h-13.7q-13,0-13-11.35V436.91q0-11.25,13-11.25Z" transform="translate(-31.29 -12.42)"/><polygon class="cls-1" points="288.55 413.23 288.55 423.97 276.59 423.97 276.59 478.27 261.96 478.27 261.96 423.97 250.1 423.97 250.1 413.23 288.55 413.23 288.55 413.23"/><path class="cls-1" d="M354.31,425.66h14.63v53.69q0,11.34-13,11.35h-13.7q-12.88,0-12.89-11.35V425.66H344V477.4c0,1.71.89,2.56,2.66,2.56h4.91c1.84,0,2.76-.85,2.76-2.56V425.66Z" transform="translate(-31.29 -12.42)"/><path class="cls-1" d="M397.07,436.39V456H405a3,3,0,0,0,2-.56,2.48,2.48,0,0,0,.62-1.89V439c0-1.7-.89-2.56-2.66-2.56Zm0,30V490.7H382.55v-65h26.79q12.89,0,12.89,11.25v18.2q0,9-8.18,10.84L425.5,490.7H409.86l-10.23-24.34Z" transform="translate(-31.29 -12.42)"/><polygon class="cls-1" points="438.71 423.97 418.36 423.97 418.36 441.87 435.44 441.87 435.44 451.99 418.36 451.99 418.36 478.27 403.74 478.27 403.74 413.23 438.71 413.23 438.71 423.97 438.71 423.97"/><polygon class="cls-2" points="300.65 208.53 300.46 317.83 226.7 373.5 226.69 208.53 300.65 208.53 300.65 208.53"/><polygon class="cls-2" points="300.81 103.89 300.64 169.26 1.59 169.26 87.48 104.17 300.81 103.89 300.81 103.89"/><polygon class="cls-2" points="0.93 373.56 166.15 373.56 166.15 208.34 0.93 208.34 0.93 373.56 0.93 373.56"/><polygon class="cls-3" points="438.13 103.69 438.02 213.65 364.38 269.42 364.17 103.69 438.13 103.69 438.13 103.69"/><polygon class="cls-3" points="438.39 0.03 438.19 65.09 139.15 65.08 225.03 0 438.39 0.03 438.39 0.03"/></g></svg>